<svg xmlns="http://www.w3.org/2000/svg" viewBox="0 0 64 64" fill="none">
  <rect x="6" y="10" width="52" height="48" rx="6" fill="#1976d2"/>
  <rect x="6" y="10" width="52" height="12" rx="6" fill="#1565c0"/>
  <rect x="14" y="6" width="4" height="12" rx="2" fill="#0d47a1"/>
  <rect x="46" y="6" width="4" height="12" rx="2" fill="#0d47a1"/>
  <g fill="#ffffff" opacity="0.95">
    <rect x="13" y="28" width="9" height="6" rx="1"/>
    <rect x="24" y="28" width="9" height="6" rx="1"/>
    <rect x="35" y="28" width="9" height="6" rx="1"/>
    <rect x="46" y="28" width="6" height="6" rx="1"/>
    <rect x="13" y="36" width="9" height="6" rx="1"/>
    <rect x="24" y="36" width="9" height="6" rx="1" fill="#ffd54f"/>
    <rect x="35" y="36" width="9" height="6" rx="1"/>
    <rect x="46" y="36" width="6" height="6" rx="1"/>
    <rect x="13" y="44" width="9" height="6" rx="1"/>
    <rect x="24" y="44" width="9" height="6" rx="1"/>
    <rect x="35" y="44" width="9" height="6" rx="1" fill="#ffd54f"/>
    <rect x="46" y="44" width="6" height="6" rx="1"/>
  </g>
</svg>
